Coordinates
version=1
nRows=16
nColumns=36
inDegrees=yes

Units are S.I. units (second, meters, Newtons, ...)
If the header above contains a line with 'inDegrees', this indicates whether rotational values are in degrees (yes) or radians (no).

endheader
time	pelvis_tilt	pelvis_list	pelvis_rotation	pelvis_tx	pelvis_ty	pelvis_tz	hip_flexion_r	hip_adduction_r	hip_rotation_r	knee_angle_r	knee_angle_r_beta	ankle_angle_r	subtalar_angle_r	mtp_angle_r	hip_flexion_l	hip_adduction_l	hip_rotation_l	knee_angle_l	knee_angle_l_beta	ankle_angle_l	subtalar_angle_l	mtp_angle_l	lumbar_extension	lumbar_bending	lumbar_rotation	arm_flex_r	arm_add_r	arm_rot_r	elbow_flex_r	pro_sup_r	arm_flex_l	arm_add_l	arm_rot_l	elbow_flex_l	pro_sup_l
      5.13333330	     -2.23687339	      1.69460408	      0.77875280	      0.83846900	      0.93471518	     -0.07442964	      6.45460998	     -2.81200086	     -4.65598428	     16.54053080	      0.28868672	     17.97707083	      8.00153961	     -7.49999987	      7.97731158	      0.62707111	     -7.44392758	     18.44127576	      0.32186098	     11.47573401	      6.23070124	     -7.49999987	     -1.09927337	     -4.05493933	      1.01418293	      8.97237643	    -11.54361703	     21.64888186	    121.25838491	     84.10879861	      2.67923441	    -14.82497638	     20.56357538	    131.83152489	     70.35914923
      5.15000000	     -2.49879186	      1.83059846	      0.80534697	      0.83734549	      0.93753767	     -0.07466402	      6.87128348	     -2.97735041	     -4.52441823	     16.59553044	      0.28964665	     17.89533835	      7.89761659	     -7.49999987	      8.34498317	      0.75359115	     -7.61867158	     18.37711551	      0.32074117	     11.09929889	      6.29688753	     -7.49999987	     -1.05849538	     -4.10884180	      0.94832644	      8.40578520	    -11.36260360	     21.61330974	    120.87475551	     83.65818895	      2.04917044	    -14.53049273	     21.08894046	    131.42576892	     70.24907002
      5.16666670	     -2.65077536	      1.94263154	      0.78282731	      0.83600729	      0.93990284	     -0.07380275	      7.17378353	     -3.12908970	     -4.73967045	     16.63155312	      0.29027536	     17.62882379	      8.00206025	     -7.49999987	      8.50150624	      0.77333027	     -8.00042950	     18.16376621	      0.31701752	     10.80699323	      7.12302441	     -7.49999987	     -1.37961587	     -4.11851548	      0.72416244	      7.92199537	    -11.07046519	     21.46165452	    121.12247826	     83.34626796	      1.32764335	    -14.17125306	     21.82928697	    131.57515564	     70.13668840
      5.18333330	     -2.93249841	      1.89258929	      0.73426971	      0.83324800	      0.93744679	     -0.07174622	      7.69004088	     -3.03791183	     -4.72188488	     16.66723372	      0.29089811	     17.54587765	      8.07630013	     -7.49999987	      8.79472151	      0.66673160	     -8.17284347	     17.94256583	      0.31315685	     10.82053050	      7.59370894	     -7.49999987	     -1.49897076	     -4.04196789	      0.55008659	      7.50525863	    -10.85573687	     21.36737148	    121.34483129	     82.86190777	      0.43973139	    -13.72240080	     22.57365892	    131.69802560	     69.98208438
      5.20000000	     -3.08015180	      1.84079953	      0.72975136	      0.83352636	      0.94022673	     -0.07321911	      7.92241811	     -3.01734645	     -4.74744288	     16.66348498	      0.29083268	     17.15516871	      8.05774498	     -7.49999987	      8.92585529	      0.59255338	     -8.54227029	     17.78835413	      0.31046535	     10.61976866	      8.01372805	     -7.49999987	     -1.71924076	     -3.99662908	      0.86474192	      6.38782226	    -10.50719835	     20.35104368	    121.77517344	     85.66334360	     -0.15639117	    -13.32649913	     23.69728157	    131.17025549	     72.01328128
      5.21666670	     -3.27931451	      1.80773800	      0.67327414	      0.83225518	      0.93914004	     -0.07347624	      8.18177583	     -3.01905278	     -4.86030301	     16.54625219	      0.28878658	     17.00174791	      8.24883622	     -7.49999987	      9.06129878	      0.55215278	     -8.69253804	     17.53132566	      0.30597936	     10.38620474	      8.27773781	     -7.49999987	     -1.91309756	     -3.90037398	      0.46189742	      5.81149110	    -10.28331737	     20.31866976	    122.14841607	     84.70218127	     -1.62205860	    -12.99802479	     24.10308390	    131.37878434	     71.27251326
      5.23333330	     -3.39788142	      1.72726659	      0.59993094	      0.83153038	      0.94031232	     -0.07278839	      8.27784413	     -2.90533700	     -4.88881779	     16.31897796	      0.28481990	     16.67610918	      8.43718138	     -7.49999987	      9.08392955	      0.46146703	     -8.71455268	     17.21397910	      0.30044061	     10.22218345	      8.55335284	     -7.49999987	     -2.11565314	     -3.76192481	      0.22940090	      5.19739139	    -10.16474916	     20.15184611	    122.54647579	     83.77272807	     -3.09646963	    -12.57657833	     24.57720853	    131.36365271	     70.82686075
      5.25000000	     -3.55741634	      1.63880025	      0.49890326	      0.82971029	      0.93698982	     -0.07194774	      8.48541432	     -2.72804900	     -4.69478020	     16.15809559	      0.28201197	     16.64975556	      8.43701861	     -7.49999987	      9.31982710	      0.34729314	     -8.58533374	     17.14202200	      0.29918472	     10.36134044	      8.59708412	     -7.49999987	     -2.30926466	     -3.63674955	      0.01635776	      4.74230202	    -10.20326842	     20.08925495	    123.03733790	     81.79558433	     -4.59767951	    -12.17966828	     24.95578737	    131.57964800	     69.84783181
      5.26666670	     -3.58116601	      1.55654926	      0.38438214	      0.82933484	      0.93810742	     -0.07245408	      8.54551197	     -2.63590056	     -4.70177544	     16.12257920	      0.28139209	     16.69145018	      8.50129670	     -7.49999987	      9.48307532	      0.25427250	     -8.69936519	     17.32470293	      0.30237311	     10.48536118	      8.68558301	     -7.49999987	     -2.59026252	     -3.50204375	     -0.22605156	      4.18622083	    -10.25883570	     19.93976258	    123.47199064	     81.39078693	     -5.88361244	    -11.85111803	     25.39640592	    131.47590069	     69.73725712
      5.28333330	     -3.68736101	      1.48922331	      0.19147394	      0.82766025	      0.93819321	     -0.07163480	      8.74768087	     -2.57060034	     -4.78808757	     16.17174469	      0.28225019	     16.78810688	      8.66236963	     -7.49999987	      9.78134151	      0.14886841	     -8.65739911	     17.57079369	      0.30666820	     10.38823082	      8.40576541	     -7.49999987	     -2.80888875	     -3.46193955	      0.09025114	      3.26395717	    -10.35553508	     19.02898140	    124.06968040	     83.72680616	     -6.01105357	    -11.95267495	     26.52438609	    131.10551234	     71.62174987
      5.30000000	     -3.73169438	      1.40890489	     -0.02458265	      0.82666592	      0.93665093	     -0.07164908	      8.86661399	     -2.48658903	     -4.59721123	     16.12793917	      0.28148564	     16.80856334	      8.58260007	     -7.49999987	     10.00485262	      0.03298199	     -8.76747943	     17.83599001	      0.31129675	     10.64711742	      8.14545332	     -7.49999987	     -3.08092168	     -3.39215135	     -0.24476100	      3.21611789	    -10.36531552	     19.17635136	    124.15283901	     81.99911928	     -6.17383525	    -12.29524935	     27.05153411	    131.17863787	     70.64090395
      5.31666670	     -4.01042438	      1.40449219	     -0.19575207	      0.82605912	      0.93805570	     -0.07208661	      9.15591961	     -2.48693689	     -4.47903787	     15.94009787	      0.27820719	     16.52470433	      8.62107370	     -7.49999987	     10.38803928	      0.02343237	     -8.93138694	     17.86898268	      0.31187258	     10.36332481	      7.72407818	     -7.49999987	     -2.90016449	     -3.34198013	     -0.58463802	      2.97074945	    -10.30772501	     19.14785488	    123.83094610	     81.49493083	     -6.20597166	    -12.82361942	     27.42095563	    130.80236586	     70.37395751
      5.33333330	     -3.95101625	      1.36330691	     -0.32992862	      0.82405126	      0.93990711	     -0.07139626	      9.11746151	     -2.43820377	     -4.59691730	     15.71430994	      0.27426645	     16.37689274	      9.22206285	     -7.49999987	     10.42946095	     -0.03057307	     -9.20251050	     17.86798657	      0.31185520	     10.04539368	      7.42293558	     -7.49999987	     -3.44852633	     -3.30337556	     -0.01106206	      2.13247486	    -10.20381051	     17.82880566	    124.52560652	     83.63799405	     -5.16152265	    -13.26414860	     29.25038950	    130.41156672	     70.30561882
      5.35000000	     -4.00473366	      1.35138550	     -0.52021105	      0.82348409	      0.93971360	     -0.07245509	      9.12859963	     -2.43969730	     -4.52926144	     15.47874546	      0.27015507	     16.15819083	      9.47497674	     -7.49999987	     10.57061668	     -0.03820252	     -9.28108907	     17.88300431	      0.31211731	      9.88181436	      7.33960300	     -7.49999987	     -3.67353944	     -3.21575673	     -0.24479630	      2.06414525	    -10.19426062	     17.46075265	    124.47445752	     84.36971510	     -4.95506856	    -13.52586429	     29.86943545	    130.27455207	     69.70754438
      5.36666670	     -4.10515190	      1.37543558	     -0.69887079	      0.82268675	      0.94086469	     -0.07279232	      9.18158861	     -2.44692041	     -4.46950199	     15.11316786	      0.26377454	     15.83452931	      9.74348858	     -7.49999987	     10.66901125	      0.02558527	     -9.46263954	     17.59660410	      0.30711868	      9.52419042	      7.23021902	     -7.49999987	     -3.90794771	     -3.23812819	     -0.59527504	      2.00802991	    -10.09518436	     17.28598804	    124.35632326	     83.38838852	     -4.96609358	    -13.61687266	     30.03738098	    130.18069708	     69.14115074
      5.38333330	     -4.14654308	      1.39553492	     -0.86135501	      0.82139240	      0.93686370	     -0.07252422	      9.21384450	     -2.47596659	     -4.58942465	     14.94001488	      0.26075245	     15.77959390	      9.94232513	     -7.49999987	     10.70961567	      0.09548619	     -9.52862181	     17.45459903	      0.30464022	      9.44855167	      6.94823187	     -7.49999987	     -4.05805310	     -3.23218359	     -0.92246990	      1.99071360	    -10.03088315	     16.99580959	    124.41016567	     82.46499483	     -4.98240012	    -13.62656100	     30.31253188	    130.37827653	     68.68291180
